<svg xmlns="http://www.w3.org/2000/svg" viewBox="0 0 128 128"><defs><linearGradient id="g" x1="0" y1="0" x2="1" y2="1"><stop stop-color="#8b5cf6"/><stop offset="1" stop-color="#22d3ee"/></linearGradient></defs><rect width="128" height="128" rx="32" fill="#071127"/><path d="M64 18c-18 0-31 13-31 31 0 9 4 16 10 22-5 5-8 11-8 19 0 12 10 20 29 20h1c19 0 29-8 29-20 0-8-3-14-8-19 6-6 10-13 10-22 0-18-13-31-32-31z" fill="none" stroke="url(#g)" stroke-width="7"/><circle cx="52" cy="48" r="4" fill="#22d3ee"/><circle cx="76" cy="48" r="4" fill="#8b5cf6"/><path d="M47 67c11 7 23 7 34 0M48 86c10-6 22-6 32 0" fill="none" stroke="#fff" stroke-width="4" stroke-linecap="round"/></svg>